<svg width="22" height="22" viewBox="0 0 22 22" fill="none" xmlns="http://www.w3.org/2000/svg">
<path d="M5.49756 20.1581V3.66508C5.49756 3.17905 5.69063 2.71293 6.0343 2.36926C6.37797 2.02559 6.84409 1.83252 7.33012 1.83252H14.6603C15.1464 1.83252 15.6125 2.02559 15.9562 2.36926C16.2998 2.71293 16.4929 3.17905 16.4929 3.66508V20.1581H5.49756Z" stroke="#B8A593" stroke-width="1.83256" stroke-linecap="round" stroke-linejoin="round"/>
<path d="M5.49764 10.9954H3.66508C3.17905 10.9954 2.71293 11.1884 2.36926 11.5321C2.02559 11.8758 1.83252 12.3419 1.83252 12.8279V18.3256C1.83252 18.8116 2.02559 19.2777 2.36926 19.6214C2.71293 19.9651 3.17905 20.1582 3.66508 20.1582H5.49764" stroke="#B8A593" stroke-width="1.83256" stroke-linecap="round" stroke-linejoin="round"/>
<path d="M16.4929 8.24658H18.3255C18.8115 8.24658 19.2776 8.43965 19.6213 8.78333C19.965 9.127 20.158 9.59312 20.158 10.0791V18.3257C20.158 18.8117 19.965 19.2778 19.6213 19.6215C19.2776 19.9651 18.8115 20.1582 18.3255 20.1582H16.4929" stroke="#B8A593" stroke-width="1.83256" stroke-linecap="round" stroke-linejoin="round"/>
<path d="M9.16284 5.49756H12.828" stroke="#B8A593" stroke-width="1.83256" stroke-linecap="round" stroke-linejoin="round"/>
<path d="M9.16284 9.16284H12.828" stroke="#B8A593" stroke-width="1.83256" stroke-linecap="round" stroke-linejoin="round"/>
<path d="M9.16284 12.8279H12.828" stroke="#B8A593" stroke-width="1.83256" stroke-linecap="round" stroke-linejoin="round"/>
<path d="M9.16284 16.4929H12.828" stroke="#B8A593" stroke-width="1.83256" stroke-linecap="round" stroke-linejoin="round"/>
</svg>
